<?xml version="1.0" encoding="UTF-8"?>
<svg width="18px" height="18px" viewBox="0 0 18 18" version="1.1" xmlns="http://www.w3.org/2000/svg" xmlns:xlink="http://www.w3.org/1999/xlink" fill="currentColor" fill-rule="evenodd" clip-rule="evenodd">
    <g id="7-1-1" transform="translate(-1227.000000, -240.000000)">
        <g id="Group-9" transform="translate(272.000000, 176.000000)">
            <g id="Group-13" transform="translate(0.000000, 47.000000)">
                <g id="Icon-14" transform="translate(954.000000, 16.000000)">
                    <path d="M10,18.3203125 C14.609375,18.3203125 18.3203125,14.609375 18.3203125,10 C18.3203125,5.390625 14.609375,1.6796875 10,1.6796875 C5.390625,1.6796875 1.6796875,5.390625 1.6796875,10 C1.6796875,14.609375 5.390625,18.3203125 10,18.3203125 Z M10,16.6796875 C6.328125,16.6796875 3.3203125,13.671875 3.3203125,10 C3.3203125,6.328125 6.328125,3.3203125 10,3.3203125 C13.671875,3.3203125 16.6796875,6.328125 16.6796875,10 C16.6796875,13.671875 13.671875,16.6796875 10,16.6796875 Z M8.3203125,14.1796875 L15,7.5 L13.828125,6.328125 L8.3203125,11.796875 L6.171875,9.6484375 L5,10.8203125 L8.3203125,14.1796875 Z"></path>
                </g>
            </g>
        </g>
    </g>
</svg>