<?xml version="1.0" encoding="UTF-8"?>
<svg width="16px" height="18px" viewBox="0 0 16 18" version="1.1" xmlns="http://www.w3.org/2000/svg" xmlns:xlink="http://www.w3.org/1999/xlink" fill="currentColor" fill-rule="evenodd" clip-rule="evenodd">
    <g id="2-2-2" transform="translate(-310.000000, -357.000000)">
        <g id="Group-Copy" transform="translate(0.000000, 32.000000)">
            <g id="Group-3" transform="translate(0.000000, 12.000000)">
                <g id="List-/-Attachment-/-Icon" transform="translate(16.000000, 296.000000)">
                    <g id="Icon-39" transform="translate(292.000000, 16.000000)">
                        <path d="M15.8203125,18.3203125 C16.7578125,18.3203125 17.5,17.578125 17.5,16.6796875 L17.5,16.6796875 L17.5,5 C17.5,4.1015625 16.7578125,3.3203125 15.8203125,3.3203125 L15.8203125,3.3203125 L15,3.3203125 L15,1.6796875 L13.3203125,1.6796875 L13.3203125,3.3203125 L6.6796875,3.3203125 L6.6796875,1.6796875 L5,1.6796875 L5,3.3203125 L4.1796875,3.3203125 C3.2421875,3.3203125 2.5,4.1015625 2.5,5 L2.5,5 L2.5,16.6796875 C2.5,17.578125 3.2421875,18.3203125 4.1796875,18.3203125 L4.1796875,18.3203125 L15.8203125,18.3203125 Z M15.8203125,6.6796875 L4.1796875,6.6796875 L4.1796875,5 L15.8203125,5 L15.8203125,6.6796875 Z M15.8203125,16.6796875 L4.1796875,16.6796875 L4.1796875,8.3203125 L15.8203125,8.3203125 L15.8203125,16.6796875 Z M7.5,10.8203125 L7.5,9.1796875 L5.8203125,9.1796875 L5.8203125,10.8203125 L7.5,10.8203125 Z M14.1796875,10.8203125 L14.1796875,9.1796875 L12.5,9.1796875 L12.5,10.8203125 L14.1796875,10.8203125 Z M10.8203125,10.8203125 L10.8203125,9.1796875 L9.1796875,9.1796875 L9.1796875,10.8203125 L10.8203125,10.8203125 Z"></path>
                    </g>
                </g>
            </g>
        </g>
    </g>
</svg>