<?xml version="1.0" encoding="UTF-8"?>
<svg width="20px" height="15px" viewBox="0 0 20 15" version="1.1" xmlns="http://www.w3.org/2000/svg" xmlns:xlink="http://www.w3.org/1999/xlink" fill="currentColor" fill-rule="evenodd" clip-rule="evenodd">
    <g transform="translate(-16.000000, -263.000000)">
        <g transform="translate(0.000000, 248.000000)">
            <g transform="translate(16.000000, 14.000000)">
                <path d="M5.98791097,3.33333333 C4.4117502,3.33333333 3.12213309,4.62295044 3.12213309,6.19911121 L3.12213309,10.3186666 C2.93698304,10.2541224 2.74335776,10.2156778 2.54897751,10.2156778 C2.10775755,10.2156778 1.66654506,10.3816658 1.33326069,10.7149501 C0.666690882,11.38152 0.666690882,12.479814 1.33326069,13.1463838 L3.62588299,15.4390061 C3.80854634,15.6226451 4.02987503,15.7530932 4.26844424,15.8375278 L4.26844424,17.0890672 L5.41475539,17.0890672 L5.41475539,15.942756 L14.5852446,15.942756 L14.5852446,17.0890672 L15.7315558,17.0890672 L15.7315558,15.8375278 C15.970125,15.7530932 16.1914547,15.6226451 16.374117,15.4390061 L18.6667393,13.1463838 C19.3333091,12.479814 19.3333091,11.38152 18.6667393,10.7149501 C18.1866247,10.2348356 17.4832855,10.1071514 16.8778669,10.3186666 L16.8778669,6.19911121 C16.8778669,4.62295044 15.5882498,3.33333333 14.012089,3.33333333 L5.98791097,3.33333333 Z M5.98791097,4.47964449 L14.012089,4.47964449 C14.9692759,4.47964449 15.7315558,5.24192434 15.7315558,6.19911121 L15.7315558,11.2187 L14.4464333,12.5038225 L5.55356674,12.5038225 L4.26844424,11.2187 L4.26844424,6.19911121 C4.26844424,5.24192434 5.0307241,4.47964449 5.98791097,4.47964449 Z M2.54897751,11.3530339 C2.69413569,11.3530339 2.83929388,11.4105051 2.9542161,11.5254284 L5.07892141,13.6501337 L14.9210775,13.6501337 L17.0457828,11.5254284 C17.2756294,11.2955829 17.6264145,11.2955829 17.8562611,11.5254284 C18.0861066,11.7552739 18.0861066,12.10606 17.8562611,12.3359066 L15.5636388,14.6285289 L15.5613984,14.6285289 C15.4555688,14.7349791 15.3107721,14.7964449 15.1583991,14.7964449 L4.84159875,14.7964449 C4.68922574,14.7964449 4.54448343,14.734978 4.4385984,14.6285289 L4.4363591,14.6285289 L2.14373679,12.3359066 C1.91389128,12.1060611 1.91389128,11.755275 2.14373679,11.5254284 C2.25866009,11.4105051 2.4038172,11.3530339 2.54897538,11.3530339 L2.54897751,11.3530339 Z"></path>
            </g>
        </g>
    </g>
</svg>