<?xml version="1.0" encoding="UTF-8"?>
<svg width="20px" height="20px" viewBox="0 0 20 20" version="1.1" xmlns="http://www.w3.org/2000/svg" xmlns:xlink="http://www.w3.org/1999/xlink">
    <title>Icon</title>
    <defs>
        <path d="M15.7512444,1.66666667 C15.1057221,1.66666667 14.4957804,1.98688528 13.9874952,2.49008787 L3.4304158,12.9912565 L1.66666667,18.2723363 L6.94774889,16.5136709 L7.05957182,16.4069318 L17.5149947,6.01758613 C18.0181973,5.50930096 18.3333333,4.89935924 18.3333333,4.253837 C18.3333333,3.60831476 18.0181973,2.99837304 17.5149947,2.49008787 C17.0067095,1.98688528 16.3967678,1.66666667 15.7512456,1.66666667 L15.7512444,1.66666667 Z M13.1437425,5.163667 L14.8261666,6.85117372 L6.24631579,15.3801963 L3.7252227,16.2188664 L4.56897545,13.6926908 L13.1437425,5.163667 Z" id="path-1"></path>
    </defs>
    <g id="Work-In-Progress" stroke="none" stroke-width="1" fill="none" fill-rule="evenodd">
        <g id="9-1-1" transform="translate(-1226.000000, -299.000000)">
            <g id="Group-9" transform="translate(272.000000, 236.000000)">
                <g id="Group-13" transform="translate(0.000000, 47.000000)">
                    <g id="Group-8" transform="translate(768.000000, 16.000000)">
                        <g id="Edit" transform="translate(186.000000, 0.000000)">
                            <polygon id="Path" points="0 20 0 0 20 0 20 20"></polygon>
                            <mask id="mask-2" fill="white">
                                <use xlink:href="#path-1"></use>
                            </mask>
                            <use id="Mask" fill="#26273D" fill-rule="nonzero" xlink:href="#path-1"></use>
                            <rect id="Mask" fill="#676777" mask="url(#mask-2)" x="0" y="0" width="20" height="20"></rect>
                        </g>
                    </g>
                </g>
            </g>
        </g>
    </g>
</svg>