<?xml version="1.0" encoding="UTF-8"?>
<svg width="24px" height="24px" viewBox="0 0 24 24" version="1.1" xmlns="http://www.w3.org/2000/svg" xmlns:xlink="http://www.w3.org/1999/xlink">
    <title>Icon 17</title>
    <g id="Work-In-Progress" stroke="none" stroke-width="1" fill="none" fill-rule="evenodd">
        <g id="7-1-1" transform="translate(-12.000000, -20.000000)" fill="#00B28D" fill-rule="nonzero">
            <g id="Group-3">
                <path d="M35.8405749,34.0007682 C34.9044861,39.7879184 29.9587592,44 24,44 C18.0412408,44 13.0955139,39.7879184 12.1594251,34.0007682 L17.528015,34.0004909 C18.3210204,36.982831 20.8895254,38.8571429 24,38.8571429 C27.1104746,38.8571429 29.6789796,36.982831 30.471985,34.0004909 Z M24,20 C29.9591024,20 34.9050559,24.2125669 35.8407366,30.0002319 L30.4722532,30.0005179 C29.6795588,27.0175917 27.1108253,25.1428571 24,25.1428571 C20.8891747,25.1428571 18.3204412,27.0175917 17.5277468,30.0005179 L12.1592634,30.0002319 C13.0949441,24.2125669 18.0408976,20 24,20 Z" id="Icon-17"></path>
            </g>
        </g>
    </g>
</svg>