<?xml version="1.0" encoding="UTF-8"?>
<svg width="20px" height="20px" viewBox="0 0 20 20" version="1.1" xmlns="http://www.w3.org/2000/svg" xmlns:xlink="http://www.w3.org/1999/xlink" fill="currentColor" fill-rule="evenodd" clip-rule="evenodd">
    <path d="M10,0.833333333 C4.94520437,0.833333333 0.833333333,4.94520437 0.833333333,10 C0.833333333,15.0547964 4.94520437,19.1666667 10,19.1666667 C15.0547964,19.1666667 19.1666667,15.0547964 19.1666667,10 C19.1666667,4.94520437 15.0547964,0.833333333 10,0.833333333 Z M10,2.36111111 C14.2282442,2.36111111 17.6388889,5.77175583 17.6388889,10 C17.6388889,14.2282442 14.2282442,17.6388889 10,17.6388889 C5.77175583,17.6388889 2.36111111,14.2282442 2.36111111,10 C2.36111111,5.77175583 5.77175583,2.36111111 10,2.36111111 Z M10,5.41666667 C8.32004104,5.41666667 6.94444444,6.79226326 6.94444444,8.47222222 L8.47222222,8.47222222 C8.47222222,7.61881549 9.14659326,6.94444444 10,6.94444444 C10.8534075,6.94444444 11.5277778,7.61881549 11.5277778,8.47222222 C11.5277778,9.05707465 11.1518016,9.57628076 10.5967882,9.76128472 L10.2864583,9.85677083 C9.66281486,10.0626626 9.23611111,10.6594508 9.23611111,11.312934 L9.23611111,12.2916667 L10.7638889,12.2916667 L10.7638889,11.312934 L11.0742188,11.2174479 C12.2498919,10.8265515 13.0555556,9.71055792 13.0555556,8.47222222 C13.0555556,6.79226326 11.679959,5.41666667 10,5.41666667 Z M9.23611111,13.0555556 L9.23611111,14.5833333 L10.7638889,14.5833333 L10.7638889,13.0555556 L9.23611111,13.0555556 Z"></path>
</svg>