<?xml version="1.0" encoding="UTF-8"?>
<svg width="16px" height="16px" viewBox="0 0 16 16" version="1.1" xmlns="http://www.w3.org/2000/svg" xmlns:xlink="http://www.w3.org/1999/xlink" fill="currentColor" fill-rule="evenodd" clip-rule="evenodd">
    <g id="7-1-1" transform="translate(-18.000000, -306.000000)">
        <g id="Group" transform="translate(0.000000, 292.000000)">
            <g transform="translate(16.000000, 12.000000)">
                <path d="M2.5,2.5 L2.5,15 C2.5,16.3720698 3.62793023,17.5 5,17.5 L15,17.5 C16.3720698,17.5 17.5,16.3720698 17.5,15 L17.5,6.25 L13.75,6.25 L13.75,2.5 L2.5,2.5 Z M3.75,3.75 L12.5,3.75 L12.5,15 C12.5,15.4589849 12.6367186,15.8789058 12.8515628,16.25 L5,16.25 C4.30175698,16.25 3.75,15.698243 3.75,15 L3.75,3.75 Z M5,6.25 L5,7.5 L11.25,7.5 L11.25,6.25 L5,6.25 Z M13.75,7.5 L16.25,7.5 L16.25,15 C16.25,15.698243 15.698243,16.25 15,16.25 C14.301757,16.25 13.75,15.698243 13.75,15 L13.75,7.5 Z M5,8.75 L5,10 L7.5,10 L7.5,8.75 L5,8.75 Z M8.75,8.75 L8.75,10 L11.25,10 L11.25,8.75 L8.75,8.75 Z M5,11.25 L5,12.5 L7.5,12.5 L7.5,11.25 L5,11.25 Z M8.75,11.25 L8.75,12.5 L11.25,12.5 L11.25,11.25 L8.75,11.25 Z M5,13.75 L5,15 L7.5,15 L7.5,13.75 L5,13.75 Z M8.75,13.75 L8.75,15 L11.25,15 L11.25,13.75 L8.75,13.75 Z" ></path>
            </g>
        </g>
    </g>
</svg>