<?xml version="1.0" encoding="UTF-8"?>
<svg width="18px" height="18px" viewBox="0 0 18 18" version="1.1" xmlns="http://www.w3.org/2000/svg" xmlns:xlink="http://www.w3.org/1999/xlink" fill="currentColor" fill-rule="evenodd" clip-rule="evenodd">
    <g id="6-1-1" transform="translate(-171.000000, -581.000000)">
        <g id="Group" transform="translate(154.000000, 564.000000)">
            <g transform="translate(14.000000, 14.000000)">
                <path d="M18.984375,20.484375 L20.484375,18.984375 L15.515625,14.015625 L14.71875,14.015625 L14.4375,13.734375 C15.421875,12.609375 15.984375,11.109375 15.984375,9.515625 C15.984375,5.90625 13.078125,3 9.515625,3 C5.90625,3 3,5.90625 3,9.515625 C3,13.078125 5.90625,15.984375 9.515625,15.984375 C11.109375,15.984375 12.609375,15.421875 13.734375,14.4375 L14.015625,14.71875 L14.015625,15.515625 L18.984375,20.484375 Z M9.515625,14.015625 C7.03125,14.015625 5.015625,12 5.015625,9.515625 C5.015625,7.03125 7.03125,5.015625 9.515625,5.015625 C12,5.015625 14.015625,7.03125 14.015625,9.515625 C14.015625,12 12,14.015625 9.515625,14.015625 Z"></path>
            </g>
        </g>
    </g>
</svg>