<?xml version="1.0" encoding="UTF-8"?>
<svg width="20px" height="16px" viewBox="0 0 20 16" version="1.1" xmlns="http://www.w3.org/2000/svg" xmlns:xlink="http://www.w3.org/1999/xlink" fill="currentColor" fill-rule="evenodd" clip-rule="evenodd">
    <path d="M16.088228,14.7124965 C16.0890851,14.0376738 15.5523085,13.4978936 14.8793191,13.496878 C14.2040284,13.4958652 13.6645213,14.0321738 13.6635057,14.7054752 C13.6624929,15.3797908 14.2000496,15.9205851 14.8722979,15.9215616 C15.5461454,15.9225355 16.0874078,15.3843936 16.088228,14.7124965 L16.088228,14.7124965 Z M3.91171565,14.6954504 C3.90810638,15.3722624 4.44164539,15.9179326 5.11046099,15.9215791 C5.78742908,15.925227 6.33294326,15.3916879 6.33647154,14.7225603 C6.34000355,14.0448901 5.80747872,13.5004291 5.13760993,13.4968614 C4.45970567,13.4932908 3.9153227,14.0255426 3.91171565,14.6954504 L3.91171565,14.6954504 Z M17.9075957,14.0921277 C17.914461,14.0420816 17.9192979,14.0231241 17.9192979,14.0041667 C17.919922,12.5354326 17.9217943,11.0667376 17.9156312,9.59808156 C17.9153191,9.52030142 17.8645319,9.42524113 17.8074645,9.36774468 C16.7909397,8.34400355 15.7716064,7.32307092 14.7458369,6.30861348 C14.6732057,6.23676241 14.5463546,6.18484397 14.443961,6.18359574 C13.6382305,6.17349291 12.832344,6.17778369 12.0264965,6.17836879 C11.9646702,6.1784078 11.902883,6.18398582 11.8443723,6.18687234 L11.8443723,14.0924397 C11.9991525,14.0924397 12.1426596,14.0794504 12.282734,14.0957553 C12.453117,14.1156489 12.5250071,14.0549929 12.5829326,13.890227 C12.9894255,12.7344078 14.1877234,12.0632518 15.3802482,12.3262376 C16.2750319,12.5236135 16.8700071,13.0724433 17.1898262,13.928727 C17.2136596,13.9925426 17.282,14.0788262 17.337039,14.0846383 C17.5220496,14.1042199 17.7104149,14.0921277 17.9075957,14.0921277 L17.9075957,14.0921277 Z M2.09205319,3.75489716 L2.09205319,14.0924397 C2.26551773,14.0924397 2.42794326,14.0813617 2.58806738,14.0957553 C2.72611348,14.1081986 2.77487234,14.050039 2.81746809,13.9281028 C3.16950709,12.9206667 4.08746099,12.2632021 5.12610284,12.2653475 C6.16985461,12.2674539 7.07868085,12.9200426 7.43134397,13.9316135 C7.47526596,14.0576064 7.53065603,14.0966915 7.66300709,14.0957553 C8.57955674,14.0893972 9.49614539,14.0925957 10.412734,14.0919326 C10.4695284,14.0918936 10.5263227,14.0851064 10.5927128,14.0808546 L10.5927128,3.75489716 L2.09205319,3.75489716 Z M5.24113475,17.1666667 L5.0070922,17.1666667 C4.97038652,17.1561348 4.93426596,17.1404539 4.89678014,17.135734 C3.85763121,17.0053723 3.16190071,16.442617 2.8076383,15.4621348 C2.76414539,15.3417979 2.70555674,15.3236206 2.59820922,15.3244007 C2.08565603,15.3280284 1.57310284,15.3273262 1.06058865,15.3245957 C0.984797872,15.3242057 0.909085106,15.3048972 0.833333333,15.2943262 L0.833333333,2.5 L11.8333333,2.5 L11.8333333,4.95818794 L12.0712766,4.95818794 C13.0331915,4.95818794 13.9951064,4.96041135 14.9569823,4.95545745 C15.0842234,4.95479433 15.1725745,4.99298227 15.2619397,5.08273759 C16.5137943,6.34013121 17.7691596,7.59405319 19.0241738,8.84832624 C19.0690709,8.8931844 19.119078,8.93301064 19.1666667,8.9751773 L19.1666667,15.2943262 C19.0909539,15.3048972 19.0152411,15.3241667 18.9394113,15.3245957 C18.4462837,15.3273652 17.953039,15.3309149 17.4599894,15.3230745 C17.3074326,15.320695 17.2280532,15.3496773 17.1700887,15.5160426 C16.9058936,16.2748475 16.374734,16.778078 15.6159681,17.0327943 C15.4158617,17.1000035 15.2010106,17.1232518 14.9929078,17.1666667 L14.7588652,17.1666667 C14.7285567,17.1567199 14.6989113,17.1413511 14.6678227,17.1376454 C13.6091702,17.0127057 12.9066915,16.4388723 12.5511809,15.441656 C12.5066738,15.3167163 12.436422,15.326039 12.3470957,15.326039 C10.7820922,15.326039 9.21712766,15.3275603 7.65212411,15.3231135 C7.52804255,15.3228014 7.47553901,15.3581028 7.43442553,15.4782057 C7.1691773,16.2539007 6.63852482,16.7718369 5.86458511,17.0325993 C5.66443972,17.1000426 5.44935461,17.1231738 5.24113475,17.1666667 L5.24113475,17.1666667 Z"></path>
</svg>