<?xml version="1.0" encoding="UTF-8"?>
<svg width="18px" height="16px" viewBox="0 0 18 16" version="1.1" xmlns="http://www.w3.org/2000/svg" xmlns:xlink="http://www.w3.org/1999/xlink" fill="currentColor" fill-rule="evenodd" clip-rule="evenodd">
    <g id="7-1-1" transform="translate(-17.000000, -218.000000)">
        <g id="Group" transform="translate(0.000000, 204.000000)">
            <g transform="translate(16.000000, 12.000000)">
                <path d="M5.40039062,2.5 L5.42073787,2.50200658 L17.1958483,4.84755022 C17.8111232,5.01845993 18.1965087,5.29874029 18.3400827,5.69356843 C18.4549502,6.009454 18.5210045,6.26143344 18.5375329,6.45249854 L18.5416667,6.54296875 L18.5416667,16.1458333 C18.5416667,16.6074098 18.378838,17.0028509 18.0554277,17.3262611 C17.7679521,17.6137368 17.423563,17.7743333 17.0264012,17.8064724 L16.875,17.8125 L3.33333333,17.8125 C2.87175682,17.8125 2.47631573,17.6496713 2.15290554,17.3262611 C1.86542982,17.0387854 1.70483331,16.6943963 1.67269427,16.2972346 L1.66666667,16.1458333 L1.66666667,7.8125 C1.66666667,7.36157722 1.82963391,6.97161988 2.15290554,6.64834825 C2.43968174,6.36157206 2.77880581,6.19671488 3.16853861,6.15549285 L3.31705729,6.14583333 L3.73333333,6.14541667 L3.73372396,4.16666667 C3.73372396,3.80736068 3.83405001,3.48814047 4.03352409,3.21184088 L4.12507983,3.09606283 L4.22875555,2.98558996 C4.52083913,2.69863064 4.86331329,2.5381452 5.25233365,2.50602448 L5.40039062,2.5 Z M17.2916667,7.15541667 L17.2718282,7.17081463 C17.2221887,7.20395828 17.1648088,7.23322339 17.1000435,7.25849767 C16.9123243,7.33175393 16.7155171,7.37569499 16.509965,7.39034118 L16.3541667,7.39583333 L3.33333333,7.39583333 C3.2201606,7.39583333 3.12450348,7.4362219 3.04077935,7.51994602 C2.97380005,7.58692532 2.93455552,7.66154173 2.92153687,7.74665358 L2.91666667,7.8125 L2.91666667,16.1458333 C2.91666667,16.2590061 2.95705523,16.3546632 3.04077935,16.4383873 C3.10775865,16.5053666 3.18237507,16.5446112 3.26748691,16.5576298 L3.33333333,16.5625 L16.875,16.5625 C16.9881727,16.5625 17.0838298,16.5221114 17.167554,16.4383873 C17.2345332,16.371408 17.2737778,16.2967916 17.2867965,16.2116798 L17.2916667,16.1458333 L17.2916667,7.15541667 Z M4.89583333,10.8333333 C5.20583768,10.8333333 5.47639149,10.9475672 5.70191217,11.1730878 C5.92743283,11.3986085 6.04166667,11.6691623 6.04166667,11.9791667 C6.04166667,12.3001025 5.92732862,12.573912 5.70092362,12.794359 C5.47541769,13.0139305 5.20524872,13.125 4.89583333,13.125 C4.5754783,13.125 4.30206486,13.0138319 4.08161648,12.7933835 C3.8611681,12.5729352 3.75,12.2995217 3.75,11.9791667 C3.75,11.6697512 3.86106947,11.3995823 4.08064103,11.1740764 C4.30108801,10.9476713 4.57489752,10.8333333 4.89583333,10.8333333 Z M5.36333333,3.75125 L5.29339719,3.76277656 C5.21516197,3.78229721 5.14927814,3.8211999 5.09363418,3.88011703 C5.03834872,3.93865458 5.00416695,4.00598649 4.99053141,4.08443146 L4.98372396,4.16666667 L4.98333333,6.14541667 L16.3596416,6.14597731 C16.5040307,6.15357674 16.5982137,6.13240552 16.6490447,6.08996617 L16.6743958,6.0620104 L16.6858333,6.04375 L5.36333333,3.75125 Z" transform="translate(10.104167, 10.156250) scale(-1, 1) translate(-10.104167, -10.156250) "></path>
            </g>
        </g>
    </g>
</svg>